<svg width="20" height="20" viewBox="0 0 20 20" fill="none" xmlns="http://www.w3.org/2000/svg">
<g clip-path="url(#clip0_42_32)">
<g filter="url(#filter0_d_42_32)">
<path d="M10 10.8335C11.3807 10.8335 12.5 9.71421 12.5 8.3335C12.5 6.95278 11.3807 5.8335 10 5.8335C8.61929 5.8335 7.5 6.95278 7.5 8.3335C7.5 9.71421 8.61929 10.8335 10 10.8335Z" stroke="#3F4E65" stroke-width="1.3" stroke-linecap="round" stroke-linejoin="round"/>
<path d="M9.99992 1.66675C8.23181 1.66675 6.53612 2.36913 5.28587 3.61937C4.03563 4.86961 3.33325 6.5653 3.33325 8.33342C3.33325 9.91008 3.66825 10.9417 4.58325 12.0834L9.99992 18.3334L15.4166 12.0834C16.3316 10.9417 16.6666 9.91008 16.6666 8.33342C16.6666 6.5653 15.9642 4.86961 14.714 3.61937C13.4637 2.36913 11.768 1.66675 9.99992 1.66675V1.66675Z" stroke="#3F4E65" stroke-width="1.3" stroke-linecap="round" stroke-linejoin="round"/>
</g>
</g>
<defs>
<filter id="filter0_d_42_32" x="-1.31665" y="1.01685" width="22.6333" height="25.9666" filterUnits="userSpaceOnUse" color-interpolation-filters="sRGB">
<feFlood flood-opacity="0" result="BackgroundImageFix"/>
<feColorMatrix in="SourceAlpha" type="matrix" values="0 0 0 0 0 0 0 0 0 0 0 0 0 0 0 0 0 0 127 0" result="hardAlpha"/>
<feOffset dy="4"/>
<feGaussianBlur stdDeviation="2"/>
<feComposite in2="hardAlpha" operator="out"/>
<feColorMatrix type="matrix" values="0 0 0 0 0 0 0 0 0 0 0 0 0 0 0 0 0 0 0.25 0"/>
<feBlend mode="normal" in2="BackgroundImageFix" result="effect1_dropShadow_42_32"/>
<feBlend mode="normal" in="SourceGraphic" in2="effect1_dropShadow_42_32" result="shape"/>
</filter>
<clipPath id="clip0_42_32">
<rect width="20" height="20" fill="white"/>
</clipPath>
</defs>
</svg>
